<svg xmlns="http://www.w3.org/2000/svg" viewBox="0 0 585.38 139.22"><title>fuck</title><path d="M0,49.7c35.94-4.9,72.24-9.8,108.38-6.63s72.6,15.18,99,40.08c19.66,18.57,37.66,37.94,63.71,47,1.77.62,3.43,1.65,3.41,3.53,0,3.49-2.39,6.63-6,4.54-3.38-1.95-1.56-7.28-2.08-10-2.05,5.33-11.75,6.92-10.22,1.15,1.35-5.05,8-6.14,11.28-2,7.35,9.27,13.32,8.9,17.68,5.57,4.19-3.65-2.23-9-6.77-12.23-5.27-3.73-8.25-4-9.48-8.44a1,1,0,0,1,1.08-1.27c8.49.91,10,15,19.1,16.26a8.58,8.58,0,0,0,9.39-10.61c-1.14-4.69-4-8.31-9.13-11.37a1,1,0,0,0-1.34,1.22c3.09,7.13,14,12.13,20.83,10.18,7.38-2.12,3.77-11.19-3.63-17-2.56-2-6.14-5.17-5.42-7.67a1.15,1.15,0,0,1,1.78-.6c7.91,6,9.08,26.89,23.79,16.71a8.88,8.88,0,0,0,3.84-7.06c.13-5.84-3.93-9.88-7.78-13.58-18.61-17.92-38.72-36.63-64.08-41.52-5.14-1-10.45-1.4-15.28-3.4-7.75-3.21-13.25-10-19.32-15.83a88.11,88.11,0,0,0-30.7-19A9.69,9.69,0,0,0,182.76,9c-3.9,3-2.91,7.4-1.23,10.92,7.76,16.27,27.91,22.36,45.92,23,19.82.68,40.29-3.06,58.89,4.91,3.51,1.51,13.67,6.93,15.4,10.34,2.38,4.68-5.14,5.75-9.57,7.35a1.05,1.05,0,0,0-.5,1.61c1.68,2.35,5.74,2.19,8.64.66a56.34,56.34,0,0,0,9.11-5.59c11.47-9,24.7-7.6,38.76-11.43,25.5-6.94,43.46-29,64.84-44.53C417.36,3,422.14,0,427.72.46a9.45,9.45,0,0,1,7.85,4.88c2.79,5.51-1.58,11.42-6.09,15.27a70.15,70.15,0,0,1-25.66,13.92c-7.32,2.16-15,3.15-21.95,6.35S367,48.81,366.67,56.43s7.06,18.34-2.07,23.22a12.3,12.3,0,0,1-6,1.38l-41.42-.61A3.13,3.13,0,0,1,314.14,78a2.66,2.66,0,0,1,2.45-3.24c6.1-.13,16.79,1.27,35.37,6.12,3,.78,3.91,4,.26,5.46-9.81,3.86-21.66,3.67-26.67,8.21a3.79,3.79,0,0,0,.33,5.75c8.07,6.22,18.54.25,19.67,6.88a3.15,3.15,0,0,1-.89,2.7c-8.75,9-17.54,18-29.35,19.63-3.44.45-6,2.51-7.8-1a6.58,6.58,0,0,1,.11-6c2.1-4.07,4.88-8,8.95-9.55,2.57-.94,5.36-1.87,8-1.14,2.2.62,4,2.92,3.77,5a1,1,0,0,1-1.53.83c-4-2.11-2.91-9.73,1.37-12.37,4.65-2.85,10.49-1.2,15.85-.2,21.81,4.06,30-32.35,49.05-43.07,9.81-5.51,21.45-8.17,32-12C441.9,44,454.68,30.09,470.7,22.25c17.92-8.77,38.58-9.43,58.52-9.92L582.46,11a3.07,3.07,0,0,1,2.67,1.34c1.32,2.07-3,2.05-1.87.71" style="fill:#fff"/><path d="M0,49.7C26.65,46,53.39,42.38,80.33,42a259.54,259.54,0,0,1,40.28,2.35,190.52,190.52,0,0,1,39.14,9.75,146.65,146.65,0,0,1,35.63,18.82A139.23,139.23,0,0,1,210.75,86c4.87,4.64,9.7,9.33,14.65,13.88,9.87,9.1,20.32,17.73,32.2,24a98,98,0,0,0,9.11,4.27c1.56.64,3.12,1.21,4.71,1.78a6.86,6.86,0,0,1,2.27,1.32,3.18,3.18,0,0,1,1.06,2.45,6.13,6.13,0,0,1-2,4.72,3.37,3.37,0,0,1-2.58.67,5.32,5.32,0,0,1-2.43-1.06,4.38,4.38,0,0,1-1.4-2.26,9.83,9.83,0,0,1-.29-2.58,37.76,37.76,0,0,0,0-5l.55,0a8,8,0,0,1-3.9,4,8.86,8.86,0,0,1-2.71.87,4.87,4.87,0,0,1-2.88-.31,2.5,2.5,0,0,1-1.12-1,2.81,2.81,0,0,1-.33-1.49,6.05,6.05,0,0,1,.87-2.75,6.44,6.44,0,0,1,4.69-3,6.89,6.89,0,0,1,5.4,1.52,8.19,8.19,0,0,1,1,1c.29.35.57.72.87,1.06.59.7,1.22,1.36,1.86,2a19.15,19.15,0,0,0,4.32,3.29,8.8,8.8,0,0,0,10.05-.74,3.43,3.43,0,0,0,1.34-2.08,4,4,0,0,0-.48-2.48,15.26,15.26,0,0,0-3.45-4.13,44.05,44.05,0,0,0-4.33-3.37c-1.5-1-3.09-2-4.68-2.92a16.44,16.44,0,0,1-2.29-1.63,7.07,7.07,0,0,1-1.74-2.28,10,10,0,0,1-.51-1.34,1.39,1.39,0,0,1-.09-.83,1.35,1.35,0,0,1,1.29-1.08c.3,0,.49.07.75.1a7.46,7.46,0,0,1,1.38.39,11.29,11.29,0,0,1,4.47,3.42c2.42,2.85,4.13,6.17,6.59,8.85a11.13,11.13,0,0,0,4.35,3.07,8.09,8.09,0,0,0,5.21.16,8.38,8.38,0,0,0,5.76-8.09,9.48,9.48,0,0,0-.45-2.62,17.6,17.6,0,0,0-1-2.53,16,16,0,0,0-3.18-4.35,22.92,22.92,0,0,0-4.32-3.31l-.29-.18a.6.6,0,0,0-.21-.08.55.55,0,0,0-.41.08.62.62,0,0,0-.23.79,12.56,12.56,0,0,0,1.34,2.33,20.36,20.36,0,0,0,8.58,6.46,20.61,20.61,0,0,0,5.23,1.44,12.76,12.76,0,0,0,5.33-.29,4.72,4.72,0,0,0,3.58-3.35,8.21,8.21,0,0,0-.85-5.13,23.42,23.42,0,0,0-7-8.24,22.52,22.52,0,0,1-4-3.92A5.75,5.75,0,0,1,299.28,93a2.45,2.45,0,0,1,.31-1.59,1.52,1.52,0,0,1,1.61-.58,1.94,1.94,0,0,1,.73.41c.19.15.36.31.54.46.35.33.68.67,1,1A21.66,21.66,0,0,1,305.16,95c1,1.56,1.89,3.2,2.75,4.84s1.7,3.26,2.65,4.82a16.64,16.64,0,0,0,3.38,4.19,6.52,6.52,0,0,0,4.84,1.61,12.16,12.16,0,0,0,5-1.82,14.58,14.58,0,0,0,2.19-1.55,8.69,8.69,0,0,0,1.66-2.06,8.51,8.51,0,0,0,1.1-5.09,12.09,12.09,0,0,0-1.59-5.08,22.34,22.34,0,0,0-3.26-4.33c-1.25-1.33-2.59-2.59-3.92-3.87l-4-3.82c-10.68-10.1-21.78-20-34.57-27.26a81.57,81.57,0,0,0-20.29-8.34c-1.78-.46-3.57-.83-5.38-1.15l-5.46-.9a34.62,34.62,0,0,1-10.64-3.3,41.35,41.35,0,0,1-8.93-6.65c-2.71-2.53-5.23-5.23-7.87-7.78a87.87,87.87,0,0,0-17.59-13.14,85,85,0,0,0-9.88-4.81c-.85-.35-1.7-.69-2.56-1a13.17,13.17,0,0,0-2.56-.78,9.47,9.47,0,0,0-5.19.5,8.74,8.74,0,0,0-2.23,1.35,6,6,0,0,0-1.63,2,7.17,7.17,0,0,0-.37,5.07,20,20,0,0,0,2.11,5A29.91,29.91,0,0,0,186,26c4.63,5.66,11.13,9.52,17.95,12.05a75.32,75.32,0,0,0,21.49,4.21c14.67.76,29.47-1.26,44.24.61a58.83,58.83,0,0,1,21.18,6.54,52.52,52.52,0,0,1,9.33,6.1,9.13,9.13,0,0,1,1.92,2.2,3.7,3.7,0,0,1,.4,3.06A4.6,4.6,0,0,1,300.41,63a15.78,15.78,0,0,1-2.6,1.16c-1.77.63-3.57,1.08-5.28,1.68a.9.9,0,0,0-.41.2.59.59,0,0,0-.15.34.57.57,0,0,0,.07.36,3.67,3.67,0,0,0,2.54,1.51,8.73,8.73,0,0,0,5.09-.75c1.61-.82,3.25-1.7,4.82-2.62A39.86,39.86,0,0,0,309,61.85a33.71,33.71,0,0,1,4.67-3.09,42.25,42.25,0,0,1,10.44-3.94c7.23-1.74,14.62-2.27,21.75-4a72.46,72.46,0,0,0,20.23-8.36c12.66-7.52,23.44-17.72,34.73-27.19,2.82-2.38,5.68-4.71,8.62-7a64.73,64.73,0,0,1,9.22-6.22,16.14,16.14,0,0,1,11-1.74,10,10,0,0,1,4.93,2.86,8.62,8.62,0,0,1,2.25,5.24A10.86,10.86,0,0,1,435.54,14a21.09,21.09,0,0,1-3.29,4.57,37.58,37.58,0,0,1-4.15,3.74c-1.44,1.16-3,2.26-4.47,3.3A70.78,70.78,0,0,1,403.58,35c-7.11,2.06-14.5,3-21.19,6.06a45.69,45.69,0,0,0-9.46,5.49,18.83,18.83,0,0,0-3.75,3.87,11.53,11.53,0,0,0-2,4.91,15.93,15.93,0,0,0,.3,5.36c.34,1.79.82,3.57,1.24,5.37a28.29,28.29,0,0,1,.85,5.54,9,9,0,0,1-1.42,5.48c-2.31,3.19-6.39,4.49-10.1,4.29l-11-.16-22.12-.33-5.53-.09-1.38,0h-.69a3.27,3.27,0,0,1-.76-.08,3.57,3.57,0,0,1-2.41-1.76,3.14,3.14,0,0,1,0-3,3,3,0,0,1,2.56-1.54c1.86,0,3.71.08,5.56.24A165.33,165.33,0,0,1,344,78.56c1.8.42,3.59.87,5.38,1.32l2.68.69a4.06,4.06,0,0,1,2.42,1.69,2.52,2.52,0,0,1-.13,3A5,5,0,0,1,352,86.81a47.29,47.29,0,0,1-5.31,1.66c-3.59.93-7.23,1.56-10.82,2.34a47.53,47.53,0,0,0-5.3,1.42,14,14,0,0,0-4.72,2.55,3.43,3.43,0,0,0-.39,4.58,3.56,3.56,0,0,0,.93.88c.36.27.74.51,1.12.75a15.59,15.59,0,0,0,2.45,1.14,20.35,20.35,0,0,0,5.33,1c1.82.14,3.66.11,5.53.26a8.82,8.82,0,0,1,2.78.63,3.62,3.62,0,0,1,2,2.1,4.83,4.83,0,0,1,.22.71,4.25,4.25,0,0,1,.11.74,3.39,3.39,0,0,1-.31,1.48,3.94,3.94,0,0,1-.87,1.21l-1,1c-2.57,2.64-5.17,5.27-7.92,7.74a55.57,55.57,0,0,1-8.89,6.66,31.58,31.58,0,0,1-10.37,4c-.94.16-1.83.25-2.71.48s-1.76.5-2.71.65a4.32,4.32,0,0,1-1.48,0,2.92,2.92,0,0,1-1.36-.68,5.57,5.57,0,0,1-1.49-2.48,7.06,7.06,0,0,1,.67-5.56,30.19,30.19,0,0,1,3-4.71,15.37,15.37,0,0,1,4.13-3.78,13.06,13.06,0,0,1,2.57-1.15,23.77,23.77,0,0,1,2.68-.82,8.65,8.65,0,0,1,5.61.26,5.46,5.46,0,0,1,3.15,4.59,2.23,2.23,0,0,1-.11.78,1.27,1.27,0,0,1-.55.66,1.24,1.24,0,0,1-.84.18,1.77,1.77,0,0,1-.75-.31,4.6,4.6,0,0,1-1.84-2.22,8.32,8.32,0,0,1-.07-5.61,8.91,8.91,0,0,1,3.2-4.61,11.09,11.09,0,0,1,5.31-1.81c3.77-.32,7.42.66,11,1.32a16.82,16.82,0,0,0,10.61-1.38,29.07,29.07,0,0,0,8.56-6.74A89.52,89.52,0,0,0,370,88c4.27-6,8.22-12.25,13.1-17.84a41.28,41.28,0,0,1,8.25-7.41,63.69,63.69,0,0,1,9.94-4.9c6.87-2.76,14-4.72,21-7.08a77.4,77.4,0,0,0,19.65-9.87c6.14-4.08,12-8.59,18.14-12.65a80.1,80.1,0,0,1,19.75-9.88,106.62,106.62,0,0,1,21.62-4.6c7.33-.86,14.71-1.19,22.07-1.4l22.12-.53,22.11-.52,11.06-.26,2.76-.06a12.71,12.71,0,0,1,1.38,0,3.14,3.14,0,0,1,1.3.44,2.65,2.65,0,0,1,1,1,.9.9,0,0,1-.12,1.24,1.83,1.83,0,0,1-1.33.29.91.91,0,0,1-.6-.3.5.5,0,0,1,.12-.62c-.14.16-.27.42-.12.62a.86.86,0,0,0,.6.29,1.84,1.84,0,0,0,1.32-.28.9.9,0,0,0,.13-1.24,2.79,2.79,0,0,0-1-1,3.34,3.34,0,0,0-1.3-.44,12.71,12.71,0,0,0-1.38,0l-2.76.07-11.06.28L545.62,12l-22.11.58c-7.37.23-14.74.57-22.06,1.45a105.85,105.85,0,0,0-21.56,4.64,79.86,79.86,0,0,0-19.66,9.88c-6.15,4.07-12,8.6-18.11,12.7a78.19,78.19,0,0,1-19.73,10c-7,2.38-14.09,4.35-20.92,7.12a62.24,62.24,0,0,0-9.85,4.88,41.12,41.12,0,0,0-8.14,7.34c-4.84,5.55-8.78,11.8-13.05,17.81a89.93,89.93,0,0,1-6.86,8.71,29.85,29.85,0,0,1-8.72,6.86,17.35,17.35,0,0,1-10.94,1.43c-3.62-.66-7.24-1.61-10.87-1.3a10.68,10.68,0,0,0-5,1.71,8.34,8.34,0,0,0-3,4.33,7.85,7.85,0,0,0,.05,5.22,4.19,4.19,0,0,0,1.63,2c.68.57,1.5,0,1.39-.83a4.94,4.94,0,0,0-2.84-4.08,8.19,8.19,0,0,0-5.23-.21,24.5,24.5,0,0,0-2.61.8,12.5,12.5,0,0,0-2.47,1.11,14.79,14.79,0,0,0-4,3.64,29.5,29.5,0,0,0-2.92,4.62,6.49,6.49,0,0,0-.63,5.12,5,5,0,0,0,1.31,2.2,2.68,2.68,0,0,0,2.36.53c.87-.14,1.75-.43,2.66-.64s1.86-.34,2.74-.49a30.88,30.88,0,0,0,10.17-3.9,54.57,54.57,0,0,0,8.78-6.59c2.74-2.45,5.32-5.08,7.89-7.72l1-1a3.17,3.17,0,0,0,.74-1,2.52,2.52,0,0,0,.25-1.2,4.25,4.25,0,0,0-.27-1.24,3,3,0,0,0-1.71-1.75,8.09,8.09,0,0,0-2.58-.57c-1.81-.15-3.67-.12-5.52-.26a21.21,21.21,0,0,1-5.5-1,15.67,15.67,0,0,1-2.56-1.2,12.66,12.66,0,0,1-1.18-.78,4.4,4.4,0,0,1-1.06-1,4.09,4.09,0,0,1,.47-5.46,14.77,14.77,0,0,1,4.94-2.68,48.59,48.59,0,0,1,5.38-1.45c3.61-.79,7.24-1.42,10.79-2.34a46.83,46.83,0,0,0,5.24-1.64,4.4,4.4,0,0,0,2.14-1.36,1.89,1.89,0,0,0,.1-2.21c-.89-1.47-3-1.53-4.7-2.07s-3.57-.89-5.37-1.31a166.93,166.93,0,0,0-21.7-3.88,53.05,53.05,0,0,0-5.49-.23,2.23,2.23,0,0,0-1.95,1.18,2.4,2.4,0,0,0,0,2.31A2.82,2.82,0,0,0,316.65,80a7.68,7.68,0,0,0,1.31.08l1.38,0,5.53.07,22.12.32,11.05.15a12.55,12.55,0,0,0,5.28-.82,9.19,9.19,0,0,0,4.18-3.14,8.27,8.27,0,0,0,1.29-5.05,28.39,28.39,0,0,0-.83-5.37c-.42-1.79-.9-3.57-1.26-5.4a16.59,16.59,0,0,1-.3-5.63A12.11,12.11,0,0,1,368.54,50a20,20,0,0,1,3.91-4,46.51,46.51,0,0,1,9.62-5.59c6.83-3.07,14.25-4.07,21.28-6.11a70.24,70.24,0,0,0,19.81-9.34c1.51-1,3-2.12,4.42-3.27A35.3,35.3,0,0,0,431.63,18a19.92,19.92,0,0,0,3.16-4.38A10,10,0,0,0,436,8.5a7.75,7.75,0,0,0-2-4.72,9.21,9.21,0,0,0-4.51-2.6,15.28,15.28,0,0,0-10.39,1.68A63.49,63.49,0,0,0,410,9c-2.92,2.24-5.77,4.57-8.59,6.94-11.25,9.46-22,19.7-34.83,27.3a73.39,73.39,0,0,1-20.48,8.49c-7.21,1.75-14.62,2.29-21.74,4a41.46,41.46,0,0,0-10.2,3.85,35,35,0,0,0-4.54,3A42.23,42.23,0,0,1,305,65.73c-1.61.94-3.21,1.81-4.9,2.66a9.54,9.54,0,0,1-5.68.83,5.13,5.13,0,0,1-2.69-1.34,5,5,0,0,1-.51-.63,1.5,1.5,0,0,1-.2-1,1.6,1.6,0,0,1,.42-.9,2,2,0,0,1,.79-.45c1.77-.61,3.56-1.06,5.27-1.67a14.85,14.85,0,0,0,2.43-1.09,3.65,3.65,0,0,0,1.67-1.7,2.76,2.76,0,0,0-.34-2.24,8.61,8.61,0,0,0-1.71-1.94,52.29,52.29,0,0,0-9.15-6,58.11,58.11,0,0,0-20.84-6.45C255,42,240.17,44,225.38,43.25A76.07,76.07,0,0,1,203.62,39c-6.93-2.57-13.58-6.51-18.34-12.34A29.71,29.71,0,0,1,182.12,22a20.66,20.66,0,0,1-2.2-5.18,8.07,8.07,0,0,1,.45-5.71,7,7,0,0,1,1.85-2.26,9.2,9.2,0,0,1,2.48-1.49,10.39,10.39,0,0,1,5.68-.56,14.74,14.74,0,0,1,2.71.84c.87.31,1.73.66,2.59,1a88.9,88.9,0,0,1,27.73,18.16c2.66,2.57,5.18,5.26,7.86,7.77A40.18,40.18,0,0,0,240,41.11a33.6,33.6,0,0,0,10.39,3.22l5.45.91c1.83.32,3.64.7,5.44,1.16a82.06,82.06,0,0,1,20.49,8.44c12.89,7.37,24,17.28,34.71,27.4l4,3.83c1.33,1.28,2.67,2.54,3.94,3.9a23.21,23.21,0,0,1,3.38,4.48,13.11,13.11,0,0,1,1.67,5.4,9.29,9.29,0,0,1-1.21,5.54,9.43,9.43,0,0,1-1.8,2.23,16.46,16.46,0,0,1-2.31,1.64,12.77,12.77,0,0,1-5.32,1.92,7.25,7.25,0,0,1-2.88-.35,8,8,0,0,1-2.5-1.43,17.66,17.66,0,0,1-3.54-4.38c-1-1.59-1.81-3.24-2.67-4.87s-1.71-3.25-2.71-4.78a20.4,20.4,0,0,0-1.62-2.17c-.3-.33-.61-.65-.94-1a3.71,3.71,0,0,0-1-.71.81.81,0,0,0-.84.31,1.68,1.68,0,0,0-.17,1.08,5.06,5.06,0,0,0,1.06,2.31A22.13,22.13,0,0,0,305,99a24.08,24.08,0,0,1,7.17,8.5,9,9,0,0,1,.89,5.6,4.77,4.77,0,0,1-1.51,2.51,6.72,6.72,0,0,1-2.56,1.35,13.73,13.73,0,0,1-5.63.31,22,22,0,0,1-5.4-1.5,21,21,0,0,1-8.86-6.7,12.71,12.71,0,0,1-1.42-2.45,1.33,1.33,0,0,1,.49-1.64,1.22,1.22,0,0,1,.91-.18,1.37,1.37,0,0,1,.43.16l.3.19a24,24,0,0,1,4.44,3.4,15.6,15.6,0,0,1,4.79,10,9,9,0,0,1-6.23,8.73,8.79,8.79,0,0,1-5.64-.17,11.82,11.82,0,0,1-4.6-3.25c-2.53-2.77-4.24-6.1-6.6-8.88a10.69,10.69,0,0,0-4.21-3.23,7.06,7.06,0,0,0-1.27-.36c-.21,0-.47-.08-.63-.09a.72.72,0,0,0-.43.16.72.72,0,0,0-.24.4.85.85,0,0,0,.08.52,7.55,7.55,0,0,0,4.26,4.9c1.57.94,3.18,1.88,4.7,3a42.38,42.38,0,0,1,4.39,3.42,15.76,15.76,0,0,1,3.59,4.31,4.69,4.69,0,0,1,.54,2.86,4,4,0,0,1-1.58,2.46,10,10,0,0,1-5.23,2.08,10.15,10.15,0,0,1-5.48-1.29,19.93,19.93,0,0,1-4.45-3.39c-.66-.66-1.3-1.34-1.89-2.05-.31-.35-.59-.72-.89-1.08a6.81,6.81,0,0,0-.92-.94,6.32,6.32,0,0,0-4.93-1.4,5.87,5.87,0,0,0-4.28,2.76,5.68,5.68,0,0,0-.78,2.47,2,2,0,0,0,1.12,2,4.5,4.5,0,0,0,2.53.26,8.34,8.34,0,0,0,2.53-.82,7.37,7.37,0,0,0,3.63-3.73l.4-1,.15,1a34.49,34.49,0,0,1,0,5.09c0,1.63.25,3.39,1.48,4.4a4.73,4.73,0,0,0,2.15.94,2.79,2.79,0,0,0,2.16-.56,5.59,5.59,0,0,0,1.79-4.28,2.62,2.62,0,0,0-.88-2,6.54,6.54,0,0,0-2.07-1.2c-1.58-.56-3.17-1.15-4.73-1.79a96.47,96.47,0,0,1-9.15-4.3c-11.94-6.36-22.43-15-32.3-24.15-5-4.57-9.78-9.26-14.64-13.9a138.19,138.19,0,0,0-15.3-13.11,146.14,146.14,0,0,0-35.49-18.84,190.82,190.82,0,0,0-39.05-9.82,259,259,0,0,0-40.24-2.44C53.4,42.5,26.66,46.1,0,49.7Z"/></svg>